<svg width="58" height="55" viewBox="0 0 58 55" fill="none" xmlns="http://www.w3.org/2000/svg">
<path d="M4.47368 22.0558C3.36537 21.8035 2.66371 20.6972 3.00101 19.6118C4.62294 14.3922 7.82167 9.78191 12.1813 6.43026C17.0865 2.65911 23.154 0.717818 29.3373 0.941144C35.5206 1.16447 41.4322 3.53842 46.0526 7.65361C50.159 11.311 53.0168 16.1401 54.258 21.463C54.5161 22.57 53.7365 23.6228 52.6128 23.7945C51.4892 23.9662 50.4485 23.1911 50.1747 22.0879C49.0887 17.7121 46.7054 13.7472 43.3149 10.7274C39.4101 7.24967 34.4142 5.24343 29.1887 5.0547C23.9632 4.86597 18.8355 6.50656 14.6901 9.69357C11.0906 12.4609 8.42747 16.2435 7.02857 20.5296C6.67589 21.6101 5.58199 22.3082 4.47368 22.0558Z" fill="#22828D"/>
<path d="M53.2192 24.3674L52.2192 26.0994C53.1758 26.6517 54.3989 26.3239 54.9512 25.3674L53.2192 24.3674ZM57.719 20.5735C58.2713 19.6169 57.9435 18.3937 56.9869 17.8414C56.0303 17.2891 54.8072 17.6169 54.2549 18.5735L57.719 20.5735ZM49.4253 19.8676C48.4687 19.3153 47.2455 19.643 46.6932 20.5996C46.141 21.5562 46.4687 22.7794 47.4253 23.3317L49.4253 19.8676ZM50.9253 23.534L51.2873 24.885L55.151 23.8497L54.789 22.4987L50.9253 23.534ZM54.9512 25.3674L57.719 20.5735L54.2549 18.5735L51.4871 23.3674L54.9512 25.3674ZM54.2192 22.6353L49.4253 19.8676L47.4253 23.3317L52.2192 26.0994L54.2192 22.6353Z" fill="#22828D"/>
<path d="M54.3379 32.942C55.442 33.1933 56.141 34.2954 55.8053 35.3769C54.1841 40.5995 50.9844 45.2126 46.6227 48.5658C41.7174 52.337 35.65 54.2783 29.4667 54.0549C23.2834 53.8316 17.3718 51.4577 12.7514 47.3425C8.64296 43.6833 5.78439 38.8514 4.54419 33.5254C4.28738 32.4226 5.06403 31.3738 6.18337 31.2028C7.30271 31.0317 8.33948 31.8038 8.61179 32.9029C9.69756 37.2854 12.0834 41.2564 15.4787 44.2804C19.3861 47.7606 24.3855 49.7682 29.6147 49.9571C34.8439 50.1459 39.9751 48.5042 44.1234 45.315C47.7279 42.5438 50.3941 38.7553 51.7932 34.4626C52.1441 33.386 53.2338 32.6906 54.3379 32.942Z" fill="#22828D"/>
<path d="M5.58478 30.6287L6.58478 28.8967C5.62819 28.3444 4.40501 28.6721 3.85273 29.6287L5.58478 30.6287ZM1.08498 34.4226C0.532693 35.3792 0.860443 36.6024 1.81703 37.1547C2.77361 37.707 3.99679 37.3792 4.54908 36.4226L1.08498 34.4226ZM9.37866 35.1285C10.3352 35.6808 11.5584 35.3531 12.1107 34.3965C12.663 33.4399 12.3352 32.2167 11.3787 31.6644L9.37866 35.1285ZM7.87863 31.4621L7.51663 30.1111L3.65293 31.1464L4.01492 32.4974L7.87863 31.4621ZM3.85273 29.6287L1.08498 34.4226L4.54908 36.4226L7.31683 31.6287L3.85273 29.6287ZM4.58478 32.3608L9.37866 35.1285L11.3787 31.6644L6.58478 28.8967L4.58478 32.3608Z" fill="#22828D"/>
<path d="M31.1754 16.7754V33.5591L21.3849 26.5659" stroke="#22828D" stroke-width="4" stroke-linecap="round" stroke-linejoin="round"/>
</svg>
