<svg width="57" height="45" viewBox="0 0 57 45" fill="none" xmlns="http://www.w3.org/2000/svg">
<path d="M3.656 35.7407C2.51962 33.2685 1.98166 31.5016 2.00047 28.3422M3.656 35.7407L2.00047 28.3422M3.656 35.7407L1.83879 36.576L2.00047 28.3422M3.656 35.7407C3.95014 36.3806 4.62376 36.8209 5.40428 36.8237L51.5185 36.991C52.2984 36.9938 52.9765 36.5586 53.2771 35.919C54.4373 33.451 54.9959 31.6894 55 28.5345C55.006 23.8898 53.7912 19.325 51.4772 15.2977C49.1631 11.2704 45.8313 7.92207 41.8154 5.58822C37.7996 3.25438 33.2409 2.01703 28.5961 2.00017C23.9514 1.98332 19.3838 3.18757 15.3512 5.49221C11.3185 7.79686 7.96242 11.1209 5.61924 15.1313C3.27607 19.1417 2.02812 23.6976 2.00047 28.3422" stroke="#22828D" stroke-width="4"/>
<path d="M44.3216 21.3135C45.2925 20.9953 46.3473 21.5233 46.5671 22.5211C46.8129 23.6375 46.9548 24.7743 46.9908 25.9168C47.023 26.938 46.1303 27.7091 45.111 27.6392C44.0917 27.5693 43.3341 26.6839 43.2764 25.6638C43.2387 24.9975 43.1559 24.3344 43.0287 23.6792C42.834 22.6762 43.3507 21.6318 44.3216 21.3135Z" fill="#22828D"/>
<path d="M37.3657 12.4066C37.9097 11.5418 39.0586 11.2747 39.8648 11.9024C40.7668 12.6046 41.6018 13.389 42.3591 14.2454C43.0359 15.0108 42.8411 16.1742 42.0119 16.7712C41.1828 17.3682 40.0344 17.1704 39.3387 16.4222C38.8842 15.9334 38.3972 15.4759 37.881 15.0528C37.0907 14.4052 36.8216 13.2715 37.3657 12.4066Z" fill="#22828D"/>
<path d="M25.8906 10.0557C25.7305 9.04665 26.4192 8.08902 27.4393 8.03043C28.5805 7.96489 29.7254 8.00527 30.8592 8.15104C31.8726 8.28134 32.4922 9.28511 32.2613 10.2804C32.0305 11.2757 31.0362 11.8832 30.0198 11.7782C29.3559 11.7097 28.6881 11.6862 28.021 11.7078C26.9998 11.7408 26.0507 11.0648 25.8906 10.0557Z" fill="#22828D"/>
<path d="M15.2359 16.4358C14.422 15.8183 14.2564 14.6504 14.9522 13.9021C15.7306 13.065 16.585 12.3018 17.5043 11.6223C18.326 11.0151 19.4679 11.3108 19.9901 12.189C20.5123 13.0672 20.2149 14.1939 19.4087 14.8215C18.882 15.2315 18.3836 15.6767 17.9171 16.1539C17.2028 16.8845 16.0499 17.0534 15.2359 16.4358Z" fill="#22828D"/>
<path d="M11.9806 27.5817C10.9669 27.7094 10.0318 26.9904 10.0059 25.969C9.97697 24.8262 10.054 23.6832 10.236 22.5547C10.3986 21.546 11.4217 20.9588 12.4091 21.2214C13.3965 21.484 13.9718 22.4973 13.8344 23.5097C13.7447 24.1711 13.6998 24.8378 13.7 25.5052C13.7004 26.527 12.9944 27.454 11.9806 27.5817Z" fill="#22828D"/>
<path d="M34.8057 26.3599C35.2806 25.3626 34.8571 24.1692 33.8599 23.6943C32.8626 23.2194 31.6692 23.6429 31.1943 24.6401L34.8057 26.3599ZM31.1943 24.6401L26.1943 35.1401L29.8057 36.8599L34.8057 26.3599L31.1943 24.6401Z" fill="#22828D"/>
</svg>
