<svg width="57" height="57" viewBox="0 0 57 57" fill="none" xmlns="http://www.w3.org/2000/svg">
<path d="M54.8591 30.5668C55.9933 30.6558 56.8483 31.6492 56.6777 32.774C55.8753 38.0644 53.5968 43.0372 50.0845 47.1107C46.1227 51.7056 40.7978 54.9163 34.8849 56.2756C28.972 57.6348 22.7797 57.0716 17.209 54.668C11.6383 52.2643 6.98008 48.1457 3.91217 42.9114C0.844253 37.6771 -0.473221 31.6004 0.151477 25.5655C0.776175 19.5306 3.31044 13.8526 7.38547 9.35773C11.4605 4.86284 16.8636 1.78569 22.8085 0.574079C28.0787 -0.500024 33.5309 -0.0582998 38.5388 1.82654C39.6036 2.22729 40.0526 3.45867 39.576 4.49172C39.0994 5.52477 37.8779 5.96694 36.8083 5.57923C32.6014 4.05427 28.0418 3.71211 23.6313 4.61101C18.5458 5.64747 13.9237 8.2798 10.4378 12.1249C6.95181 15.97 4.78389 20.8272 4.2495 25.9897C3.71511 31.1522 4.84213 36.3505 7.46655 40.8281C10.091 45.3057 14.0758 48.829 18.8412 50.8852C23.6066 52.9413 28.9038 53.4231 33.9619 52.2604C39.0201 51.0976 43.5752 48.3511 46.9643 44.4204C49.9036 41.0113 51.8329 36.866 52.5579 32.4503C52.7423 31.3276 53.7249 30.4779 54.8591 30.5668Z" fill="#22828D"/>
<path d="M53.6378 20.3064C54.7198 19.9537 55.8905 20.5437 56.1641 21.6483C56.3367 22.3451 56.4829 23.0482 56.6024 23.756C56.7918 24.8781 55.9533 25.8859 54.8204 25.9938C53.6875 26.1016 52.6905 25.2682 52.4874 24.1485C52.4133 23.7398 52.3287 23.3331 52.2338 22.9287C51.9737 21.8208 52.5558 20.6591 53.6378 20.3064Z" fill="#22828D"/>
<path d="M47.1955 9.80448C48.0002 8.99979 49.3112 8.99515 50.0557 9.85587C50.9201 10.8553 51.714 11.9137 52.4316 13.0233C53.0496 13.9789 52.6782 15.2362 51.6805 15.7835C50.6828 16.3309 49.4374 15.96 48.8077 15.012C48.2924 14.2361 47.733 13.4903 47.1322 12.7784C46.3984 11.9086 46.3908 10.6092 47.1955 9.80448Z" fill="#22828D"/>
<path d="M29 15V33L18.5 25.5" stroke="#22828D" stroke-width="4" stroke-linecap="round" stroke-linejoin="round"/>
</svg>
